<svg width="25" height="27" viewBox="0 0 25 27" fill="none" xmlns="http://www.w3.org/2000/svg">
<g id="&#208;&#184;&#208;&#186;&#208;&#190;&#208;&#189;&#208;&#186;&#208;&#176; &#208;&#188;&#208;&#176;&#208;&#179;&#208;&#176;&#208;&#183;&#208;&#184;&#208;&#189;">
<path id="Vector" d="M23.9896 22.7962L23.01 11.0414C22.8831 9.51823 21.6099 8.34668 20.0814 8.34668H18.3774H6.62255H4.9185C3.3901 8.34668 2.11685 9.51823 1.98993 11.0414L1.01035 22.7962C0.867576 24.5095 2.21965 25.979 3.93892 25.979H21.0611C22.7804 25.979 24.1325 24.5095 23.9896 22.7962Z" fill="white" stroke="white" stroke-width="2" stroke-linecap="round" stroke-linejoin="round"/>
<path id="Vector_2" d="M18.3779 14.2242V8.34679V6.87744C18.3779 5.31864 17.7587 3.8237 16.6564 2.72146C15.5542 1.61923 14.0593 1 12.5005 1C10.9416 1 9.44674 1.61923 8.3445 2.72146C7.24228 3.8237 6.62305 5.31864 6.62305 6.87744V8.34679V14.2242" stroke="white" stroke-width="2" stroke-linecap="round" stroke-linejoin="round"/>
</g>
</svg>
