<svg width="30" height="30" viewBox="0 0 30 30" fill="none" xmlns="http://www.w3.org/2000/svg">
<g id="&#208;&#184;&#208;&#186;&#208;&#190;&#208;&#189;&#208;&#186;&#208;&#176; &#209;&#130;&#208;&#190;&#208;&#186;&#208;&#181;&#208;&#189;">
<path id="Vector" d="M9.32242 20.7369C9.4167 20.9428 9.50841 21.1506 9.60717 21.3546C9.74057 21.6311 9.88487 21.9031 10.0112 22.1827C10.0471 22.2623 10.0349 22.363 10.0446 22.4534C9.96503 22.4444 9.87525 22.4566 9.80791 22.4226C9.25829 22.1494 8.69841 21.8928 8.16996 21.5823C7.50683 21.1923 6.94502 20.6792 6.51469 20.0313C6.04075 19.318 5.75087 18.5329 5.65788 17.6881C5.54372 16.6489 5.60786 15.6162 5.86439 14.595C6.08565 13.713 6.38707 12.8637 6.83151 12.0722C7.23875 11.348 7.76079 10.7097 8.3848 10.1562C9.17812 9.45314 10.0638 8.90534 11.0489 8.50957C12.6952 7.84888 14.4037 7.68595 16.1481 7.88351C17.1235 7.99384 18.0753 8.22284 18.9795 8.63594C20.0441 9.12216 21.0254 9.72512 21.8315 10.5789C22.7781 11.5815 23.3931 12.7739 23.7574 14.0998C24.0633 15.2153 24.2166 16.3468 24.1076 17.5046C23.9838 18.8228 23.4464 19.9383 22.4799 20.8479C21.8668 21.4252 21.1523 21.8447 20.4007 22.2097C20.2166 22.2988 20.0352 22.3957 19.8485 22.4797C19.7959 22.5035 19.7292 22.4958 19.669 22.5028C19.6715 22.4432 19.6568 22.3745 19.6805 22.3245C19.869 21.9185 20.0653 21.5163 20.2577 21.1121C20.3058 21.0114 20.3488 20.9075 20.3943 20.8055C20.3802 20.7927 20.3654 20.7799 20.3513 20.767C20.2878 20.8087 20.2173 20.8434 20.1615 20.8934C19.5458 21.4534 18.9475 22.0346 18.3125 22.5714C17.8803 22.9371 17.4019 23.2501 16.9343 23.5721C16.6881 23.7415 16.4161 23.7408 16.1494 23.5984C15.9756 23.5054 15.7985 23.4156 15.6299 23.3136C15.4747 23.22 15.4061 23.0666 15.4048 22.8909C15.4035 22.6863 15.3842 22.4727 15.4362 22.2802C15.4753 22.1353 15.5959 21.9961 15.7145 21.8934C15.9364 21.7023 16.2084 21.5657 16.4123 21.3597C16.6695 21.0993 16.8118 20.767 16.7836 20.3835C16.7637 20.1096 16.6669 19.9979 16.3995 20.0255C16.1211 20.0538 15.8428 20.1096 15.5722 20.182C14.9783 20.3418 14.4049 20.2353 13.8277 20.0929C13.6501 20.0493 13.4609 20.0428 13.2768 20.039C13.0941 20.0352 13.0004 20.1493 12.9761 20.3257C12.8901 20.9633 13.1582 21.4617 13.7354 21.7382C13.8451 21.7908 13.9618 21.8338 14.0605 21.9031C14.1458 21.9634 14.251 22.0423 14.276 22.1327C14.3838 22.5208 14.3921 22.9159 14.1471 23.2578C13.9124 23.5856 13.5584 23.7254 13.1672 23.6638C12.9478 23.6292 12.7202 23.5253 12.5393 23.3938C12.0686 23.0519 11.6088 22.6927 11.1694 22.3117C10.623 21.8383 10.1016 21.336 9.56869 20.8479C9.50905 20.7933 9.44299 20.7472 9.3795 20.6971C9.36026 20.7106 9.34102 20.7234 9.32178 20.7369H9.32242ZM22.2811 16.8241C22.3285 16.1024 21.9232 15.6374 21.4172 15.214C20.9022 14.783 20.3924 14.3436 19.9075 13.8792C19.5028 13.4911 19.1668 13.0363 18.6435 12.7765C18.0105 12.4622 17.1197 12.6925 16.7657 13.3012C16.554 13.6655 16.522 14.0703 16.5681 14.477C16.7381 15.9716 17.2813 17.3295 18.1214 18.5682C18.3946 18.971 18.7589 19.2866 19.2335 19.4469C19.7998 19.6387 20.3186 19.4995 20.8182 19.2186C21.7552 18.6913 22.2535 17.8991 22.2811 16.8241ZM13.2384 14.2448C13.1903 14.0049 13.1601 13.7829 13.1011 13.5693C12.8465 12.6476 11.7107 12.4583 11.106 12.788C10.6795 13.0202 10.4082 13.4032 10.0638 13.7137C9.50328 14.2191 8.95174 14.7342 8.37839 15.2249C7.91471 15.622 7.57032 16.0697 7.49592 16.7003C7.38882 17.6034 7.9673 18.8158 8.93763 19.2475C9.94515 19.6952 10.7244 19.5611 11.4292 18.717C12.0121 18.0184 12.4502 17.2307 12.7163 16.3558C12.8241 16.0011 12.9222 15.6431 13.0107 15.2833C13.096 14.9369 13.164 14.586 13.2384 14.2448Z" fill="white"/>
<path id="Vector_2" d="M4.30273 8.63212C4.32518 7.63787 4.75808 6.73086 5.59886 6.11955C6.6455 5.35815 8.05706 5.0958 9.32433 5.94829C9.78288 6.25682 10.1625 6.6372 10.489 7.07724C10.6442 7.28635 10.616 7.36012 10.4037 7.50252C10.167 7.66096 9.94256 7.83928 9.72067 8.01825C9.61356 8.10484 9.51801 8.16065 9.40385 8.04326C8.93889 7.56474 8.33412 7.48071 7.72037 7.5006C7.17331 7.51856 6.64101 7.63145 6.24275 8.07983C5.87655 8.49228 5.71109 8.97914 5.66491 9.51283C5.62259 10.0042 5.69698 10.4814 5.86629 10.9478C5.90862 11.0645 5.92016 11.2678 5.85154 11.3339C5.72712 11.4539 5.61553 11.2852 5.51869 11.2037C5.33271 11.0472 5.14351 10.8919 4.97741 10.7155C4.44703 10.1511 4.32197 9.4474 4.30273 8.63212Z" fill="white"/>
<path id="Vector_3" d="M25.5723 8.58634C25.5646 9.48437 25.2651 10.147 24.7251 10.6999C24.5212 10.9084 24.2839 11.0854 24.0517 11.2638C23.9966 11.3061 23.9004 11.2945 23.8228 11.3074C23.8112 11.224 23.7734 11.1329 23.7939 11.0578C23.8657 10.7929 23.9844 10.5396 24.0383 10.2721C24.1986 9.4709 24.0787 8.71912 23.5688 8.0565C23.2975 7.70434 22.9057 7.55617 22.4907 7.48112C21.9091 7.37592 21.3396 7.46188 20.7957 7.68703C20.6578 7.74411 20.5398 7.85573 20.4218 7.95323C20.2884 8.06356 20.1698 8.07446 20.0614 7.92949C19.8838 7.69216 19.6291 7.57734 19.3624 7.47791C19.1546 7.4003 19.1199 7.29831 19.2431 7.111C19.8536 6.18411 20.7136 5.65684 21.8122 5.50994C22.3561 5.43682 22.8922 5.47723 23.4046 5.66197C23.6843 5.76267 23.9658 5.90187 24.1973 6.08532C25.0349 6.74987 25.5197 7.6139 25.5723 8.5857V8.58634Z" fill="white"/>
<path id="Vector_4" d="M22.2802 16.8241C22.2526 17.8992 21.7543 18.692 20.8173 19.2186C20.3177 19.4996 19.7982 19.6388 19.2326 19.447C18.758 19.2866 18.3937 18.971 18.1205 18.5682C17.2804 17.3289 16.7372 15.9716 16.5672 14.477C16.521 14.0703 16.5531 13.6656 16.7647 13.3012C17.1188 12.6925 18.0096 12.4629 18.6425 12.7765C19.1659 13.0363 19.5019 13.4911 19.9066 13.8792C20.3914 14.3436 20.9013 14.783 21.4163 15.214C21.9229 15.6374 22.3276 16.1024 22.2802 16.8241ZM17.7421 16.0024C17.7421 16.3783 18.1583 16.7914 18.5412 16.7952C18.9292 16.7991 19.2505 16.4822 19.2537 16.0928C19.2569 15.7208 18.833 15.2859 18.47 15.2891C18.1282 15.2923 17.7421 15.6708 17.7421 16.0024Z" fill="black"/>
<path id="Vector_5" d="M13.2376 14.2448C13.1632 14.586 13.0952 14.9369 13.0099 15.2833C12.9207 15.6432 12.8233 16.0011 12.7155 16.3558C12.4494 17.2307 12.012 18.0185 11.4284 18.717C10.7236 19.5611 9.94434 19.6952 8.93682 19.2475C7.96649 18.8158 7.38801 17.6041 7.49511 16.7003C7.56951 16.0697 7.91454 15.622 8.37758 15.2249C8.95029 14.7342 9.50247 14.2191 10.063 13.7137C10.4074 13.4032 10.6787 13.0203 11.1051 12.7881C11.7093 12.4584 12.8457 12.6476 13.1003 13.5693C13.1593 13.783 13.1895 14.0049 13.2376 14.2448ZM11.2065 16.7869C11.615 16.792 11.969 16.4456 11.9741 16.0357C11.9786 15.7086 11.5842 15.2968 11.261 15.291C10.9442 15.2859 10.5408 15.69 10.5363 16.0165C10.5299 16.4777 10.7941 16.7817 11.2058 16.7869H11.2065Z" fill="black"/>
<path id="Vector_6" d="M17.7422 16.0024C17.7422 15.6701 18.1289 15.2916 18.4701 15.2891C18.8331 15.2859 19.257 15.7208 19.2538 16.0928C19.2506 16.4822 18.9293 16.7991 18.5413 16.7952C18.1584 16.7914 17.7415 16.3783 17.7422 16.0024Z" fill="white"/>
<path id="Vector_7" d="M11.2068 16.7867C10.795 16.7816 10.5308 16.4775 10.5372 16.0163C10.5417 15.6898 10.9457 15.2857 11.2619 15.2908C11.5845 15.296 11.9789 15.7084 11.9751 16.0355C11.9699 16.4454 11.6153 16.7918 11.2074 16.7867H11.2068Z" fill="white"/>
</g>
</svg>
