<svg width="356" height="188" viewBox="0 0 356 188" fill="none" xmlns="http://www.w3.org/2000/svg">
<path fill-rule="evenodd" clip-rule="evenodd" d="M24 0H134.602C138.338 0 141.345 2.96285 142.188 6.60185C145.999 23.0493 160.743 35.3075 178.349 35.3075C195.956 35.3075 210.699 23.0493 214.51 6.60185C215.353 2.96285 218.36 0 222.096 0H331.793C345.048 0 355.793 10.7452 355.793 24V56.8965C355.793 56.9536 355.839 57 355.896 57C355.954 57 356 57.0464 356 57.1035V95V97V162C356 176.359 344.359 188 330 188H26C11.6406 188 0 176.359 0 162V135V97V95V79.3744V65.2899V57V24C0 10.7451 10.7452 0 24 0Z" fill="white"/>
</svg>
