<svg width="24" height="24" viewBox="0 0 24 24" fill="none" xmlns="http://www.w3.org/2000/svg">
<g id="_&#208;&#160;&#208;&#142;&#208;&#160;&#194;&#187;&#208;&#160;&#209;&#149;&#208;&#160;&#226;&#132;&#150;_1" clip-path="url(#clip0_78_218)">
<path id="Vector" d="M17.4296 24H2.62157C1.17587 24 0 22.822 0 21.3736V6.53848C0 5.09013 1.17587 3.91211 2.62157 3.91211H17.4296C18.8753 3.91211 20.0512 5.09013 20.0512 6.53848V21.3736C20.0512 22.822 18.8753 24 17.4296 24ZM2.62157 6.10991C2.38552 6.10991 2.19378 6.30244 2.19378 6.53848V21.3736C2.19378 21.6101 2.38596 21.8022 2.62157 21.8022H17.4296C17.6657 21.8022 17.8574 21.6097 17.8574 21.3736V6.53848C17.8574 6.302 17.6652 6.10991 17.4296 6.10991H2.62157Z" fill="white"/>
<path id="Vector_2" d="M22.9018 18.6185C22.8877 18.6185 22.8737 18.6185 22.8597 18.6176C22.2542 18.5947 21.7821 18.0844 21.8053 17.4778C21.8053 17.4725 21.8053 17.4668 21.8053 17.4615V4.61846C21.8053 3.28352 20.7216 2.1978 19.3891 2.1978H6.5695C6.55283 2.1978 6.53616 2.19868 6.51948 2.20044C5.91795 2.26769 5.37477 1.83341 5.30764 1.23033C5.24051 0.627253 5.674 0.083956 6.27597 0.0162637C6.37294 0.00527473 6.47166 0 6.5695 0H19.3891C21.9313 0 23.9991 2.07165 23.9991 4.61846V17.4615C23.9991 17.4949 23.9987 17.5279 23.9974 17.5613C23.975 18.1534 23.4884 18.6185 22.9018 18.6185Z" fill="white"/>
</g>
<defs>
<clipPath id="clip0_78_218">
<rect width="24" height="24" fill="white"/>
</clipPath>
</defs>
</svg>
