<svg width="22" height="17" viewBox="0 0 22 17" fill="none" xmlns="http://www.w3.org/2000/svg">
<g id="&#208;&#177;&#209;&#128;&#208;&#184;&#208;&#187;&#208;&#184;&#208;&#176;&#208;&#189;&#209;&#130;">
<path id="Vector" d="M11.0527 17.0004C9.52618 13.1153 8.01431 9.26719 6.49805 5.40772C6.54833 5.40149 6.57733 5.39453 6.60669 5.39453C8.77116 5.3971 10.9356 5.40039 13.1005 5.40332C13.8342 5.40442 14.5679 5.40809 15.3016 5.40186C15.4562 5.40076 15.5039 5.41615 15.4386 5.58613C14.0008 9.32947 12.5683 13.0746 11.1342 16.8194C11.1155 16.8678 11.0916 16.9143 11.0527 17.0004Z" fill="#C1EAF9"/>
<path id="Vector_2" d="M9.3482 15.9653C6.28814 12.4373 3.2446 8.9281 0.199219 5.41739C0.266021 5.36317 0.329153 5.38369 0.387146 5.38369C2.0506 5.38479 3.71368 5.38845 5.37714 5.38625C5.50193 5.38625 5.55552 5.42252 5.59883 5.54122C6.83688 8.92957 8.07896 12.3161 9.32068 15.7026C9.34784 15.777 9.38124 15.8502 9.34784 15.9649L9.3482 15.9653Z" fill="#E5F2F6"/>
<path id="Vector_3" d="M21.8641 5.44972C21.4611 5.91315 21.0698 6.36486 20.6774 6.81547C18.1382 9.73123 15.5993 12.6474 13.0586 15.5617C12.9386 15.6994 12.8006 15.8214 12.671 15.9507C12.6432 15.9786 12.6057 15.9991 12.5727 15.9786C12.5356 15.9555 12.5536 15.9148 12.5686 15.8804C12.9364 15.0356 13.2447 14.1677 13.5769 13.309C14.5595 10.7702 15.5358 8.22884 16.5148 5.68858C16.5862 5.50272 16.7234 5.40991 16.9262 5.41016C18.4979 5.41235 20.0692 5.41455 21.6409 5.41785C21.7066 5.41785 21.7749 5.4021 21.8644 5.44936L21.8641 5.44972Z" fill="#00ACED"/>
<path id="Vector_4" d="M6.95117 4.4032C7.02458 4.32444 7.06055 4.28377 7.09872 4.24531C8.36467 2.98141 9.63171 1.71824 10.8954 0.452142C10.9799 0.367516 11.0287 0.345535 11.1252 0.443716C12.3985 1.73473 13.6762 3.02134 14.9528 4.30942C14.9777 4.33469 14.9994 4.3629 15.0339 4.4032H6.95117Z" fill="#E5F2F6"/>
<path id="Vector_5" d="M3.2992 0H9.69497C9.69791 0.0886561 9.63588 0.117964 9.59734 0.158629C8.39563 1.42509 7.19062 2.68863 5.99184 3.95765C5.87806 4.07818 5.83512 4.06756 5.75069 3.93164C4.96852 2.67214 4.17974 1.41667 3.39316 0.159728C3.36453 0.113568 3.3381 0.0663089 3.29883 0H3.2992Z" fill="#98DDF6"/>
<path id="Vector_6" d="M12.209 0.0175781H18.8287C18.8477 0.0915804 18.7975 0.128215 18.7696 0.170711C17.9514 1.40713 17.1314 2.64283 16.3133 3.87925C16.256 3.96571 16.2237 4.04594 16.1044 3.92614C14.8293 2.64612 13.5487 1.37087 12.2699 0.0945111C12.2538 0.0783918 12.2409 0.0586091 12.209 0.0175781Z" fill="#98DDF6"/>
<path id="Vector_7" d="M21.9996 4.44366C21.8116 4.44366 21.6655 4.44403 21.5191 4.44366C20.1383 4.43927 18.7574 4.43524 17.3766 4.42938C17.3245 4.42938 17.2529 4.45832 17.2239 4.4041C17.1957 4.35098 17.2588 4.30701 17.287 4.26342C18.0611 3.06363 18.8386 1.86641 19.6093 0.66442C19.6982 0.525941 19.736 0.549021 19.8149 0.667351C20.4124 1.56197 20.8918 2.52473 21.435 3.45013C21.6222 3.76922 21.801 4.0938 21.9996 4.44366Z" fill="#52C9F6"/>
<path id="Vector_8" d="M2.39547 4.37367C1.64376 4.37367 0.891684 4.3744 0.139974 4.3722C0.0951942 4.3722 0.0335305 4.40041 0.00673611 4.34729C-0.0185901 4.2971 0.0338975 4.25827 0.0584896 4.21944C0.801758 3.03577 1.54796 1.85393 2.28866 0.668427C2.37161 0.535809 2.40758 0.56182 2.47879 0.674655C3.22243 1.85832 3.9701 3.03906 4.71483 4.222C4.742 4.26523 4.8066 4.31066 4.76989 4.36378C4.73796 4.40957 4.66749 4.38356 4.61463 4.38356C3.87503 4.38466 3.13544 4.38429 2.39584 4.38429C2.39584 4.38063 2.39584 4.37733 2.39584 4.37367H2.39547Z" fill="#C1EAF9"/>
</g>
</svg>
