<svg width="14" height="12" viewBox="0 0 14 12" fill="none" xmlns="http://www.w3.org/2000/svg">
<g id="_&#208;&#160;&#208;&#142;&#208;&#160;&#194;&#187;&#208;&#160;&#209;&#149;&#208;&#160;&#226;&#132;&#150;_1" clip-path="url(#clip0_78_214)">
<path id="Vector" d="M9.09715 11.2992C9.00832 11.2992 8.95992 11.2992 8.91176 11.2992C6.00167 11.2997 3.09184 11.3 0.181751 11.3005C-0.0113732 11.3005 -0.0158645 11.3005 0.0130792 11.1075C0.341939 8.90666 1.4947 7.31585 3.44714 6.31507C3.54171 6.26664 3.59311 6.31 3.65624 6.35969C4.33567 6.8947 5.10442 7.17817 5.96425 7.19313C6.85551 7.20885 7.66119 6.94465 8.36807 6.39113C8.48733 6.29783 8.57916 6.27298 8.7084 6.35691C9.05099 6.57953 9.39831 6.79429 9.74339 7.01285C9.7641 7.02604 9.78256 7.04303 9.82174 7.07345C9.18049 7.58234 8.76704 8.22054 8.62806 9.02507C8.48908 9.8296 8.64328 10.5773 9.09715 11.2989V11.2992Z" fill="white"/>
<path id="Vector_2" d="M9.2626 3.26986C9.25013 5.04779 7.88503 6.53413 6.05335 6.54985C4.27007 6.56506 2.83761 5.1165 2.81091 3.30587C2.78421 1.50131 4.2309 0.00559325 6.03064 1.50384e-05C7.7765 -0.00530962 9.23815 1.40395 9.26285 3.26986H9.2626Z" fill="white"/>
<path id="Vector_3" d="M14.0004 9.56926C14.0086 10.8697 12.9357 11.975 11.6717 11.9996C10.3333 12.0255 9.2242 10.9476 9.21297 9.58853C9.202 8.24925 10.2664 7.14223 11.5654 7.13336C12.9168 7.12423 13.9917 8.19956 14.0004 9.56926ZM12.4559 9.91689C12.5225 9.91689 12.5889 9.91689 12.6555 9.91689C12.7261 9.91689 12.797 9.91866 12.8676 9.91511C13.052 9.90573 13.194 9.75385 13.196 9.56723C13.1982 9.35906 13.049 9.2153 12.8105 9.20947C12.5652 9.20338 12.3197 9.2049 12.0744 9.20997C11.9831 9.21175 11.9494 9.18208 11.9509 9.08725C11.9554 8.8337 11.9631 8.57938 11.9462 8.3271C11.9394 8.22694 11.8908 8.11386 11.8259 8.03779C11.7391 7.93611 11.6051 7.91887 11.4801 7.97567C11.3503 8.03475 11.2652 8.13921 11.2617 8.28932C11.2557 8.54262 11.2508 8.79643 11.259 9.04973C11.2632 9.18183 11.2168 9.21505 11.0938 9.21099C10.8488 9.20287 10.603 9.20186 10.3582 9.21454C10.1387 9.22595 10.0079 9.38036 10.0177 9.5865C10.0269 9.78022 10.1766 9.91435 10.3887 9.91562C10.63 9.91714 10.8712 9.92246 11.1123 9.91435C11.2283 9.91055 11.2627 9.94807 11.2587 10.0647C11.2505 10.3053 11.2555 10.5465 11.2562 10.7873C11.2567 10.9359 11.3019 11.0627 11.4371 11.1393C11.6684 11.2706 11.9429 11.1068 11.9506 10.8261C11.9581 10.5602 11.9541 10.2937 11.9506 10.0274C11.9496 9.94757 11.9726 9.91232 12.0567 9.91562C12.1894 9.92094 12.3227 9.91714 12.4559 9.91689Z" fill="white"/>
</g>
<defs>
<clipPath id="clip0_78_214">
<rect width="14" height="12" fill="white"/>
</clipPath>
</defs>
</svg>
