<svg width="31" height="21" viewBox="0 0 31 21" fill="none" xmlns="http://www.w3.org/2000/svg">
<path id="&#208;&#184;&#208;&#186;&#208;&#190;&#208;&#189;&#208;&#186;&#208;&#176; &#208;&#180;&#209;&#128;&#209;&#131;&#208;&#183;&#209;&#140;&#209;&#143;" fill-rule="evenodd" clip-rule="evenodd" d="M15.5 0C12.7636 0 10.5454 2.21824 10.5454 4.95455C10.5454 7.69085 12.7636 9.9091 15.5 9.9091C18.2364 9.9091 20.4545 7.69085 20.4545 4.95455C20.4545 2.21824 18.2364 0 15.5 0ZM7.92414 2.16812C8.44486 1.98407 8.71779 1.41275 8.53374 0.892034C8.3497 0.371317 7.77837 0.0983895 7.25766 0.282434C5.33467 0.962103 3.95454 2.79599 3.95454 4.9548C3.95454 7.11359 5.33466 8.94754 7.25768 9.62717C7.7784 9.8112 8.34972 9.53826 8.53375 9.01754C8.71778 8.49682 8.44484 7.9255 7.92412 7.74147C6.77528 7.33545 5.95454 6.23968 5.95454 4.9548C5.95454 3.66993 6.77526 2.57418 7.92414 2.16812ZM5.20378 13.9981C5.73864 13.8605 6.06064 13.3153 5.92299 12.7805C5.78534 12.2456 5.24017 11.9236 4.70531 12.0613C2 12.7575 0 15.2122 0 18.1363V19.4545C0 20.0068 0.447715 20.4545 1 20.4545H3.63636C4.18865 20.4545 4.63636 20.0068 4.63636 19.4545C4.63636 18.9022 4.18865 18.4545 3.63636 18.4545H2V18.1363C2 16.1468 3.36075 14.4725 5.20378 13.9981ZM25.077 12.7805C25.2147 12.2456 25.7598 11.9236 26.2947 12.0613C28.9999 12.7575 31 15.2122 31 18.1363V19.4545C31 20.0068 30.5523 20.4545 30 20.4545H27.3636C26.8113 20.4545 26.3636 20.0068 26.3636 19.4545C26.3636 18.9022 26.8113 18.4545 27.3636 18.4545H29V18.1363C29 16.1468 27.6392 14.4725 25.7962 13.9981C25.2614 13.8605 24.9394 13.3153 25.077 12.7805ZM23.7423 0.282433C23.2216 0.09839 22.6503 0.371319 22.4662 0.892036C22.2822 1.41275 22.5551 1.98408 23.0758 2.16812C24.2247 2.57418 25.0454 3.66992 25.0454 4.9548C25.0454 6.23969 24.2247 7.33545 23.0759 7.74147C22.5551 7.9255 22.2822 8.49681 22.4662 9.01754C22.6503 9.53826 23.2216 9.8112 23.7423 9.62717C25.6653 8.94754 27.0454 7.11358 27.0454 4.9548C27.0454 2.796 25.6653 0.962103 23.7423 0.282433ZM6.5909 18.1362C6.5909 14.6719 9.39929 11.8635 12.8636 11.8635H18.1364C21.6006 11.8635 24.4091 14.6719 24.4091 18.1362V19.4544C24.4091 20.0067 23.9614 20.4544 23.4091 20.4544H7.5909C7.03862 20.4544 6.5909 20.0067 6.5909 19.4544V18.1362Z" fill="white"/>
</svg>
