<svg width="31" height="21" viewBox="0 0 31 21" fill="none" xmlns="http://www.w3.org/2000/svg">
<g id="&#208;&#184;&#208;&#186;&#208;&#190;&#208;&#189;&#208;&#186;&#208;&#176; &#208;&#180;&#209;&#128;&#209;&#131;&#208;&#183;&#209;&#140;&#209;&#143;">
<path id="Vector" d="M3.63636 19.4546H1V18.1364C1 15.6796 2.68038 13.6151 4.95455 13.0298" stroke="#191A1F" stroke-width="2" stroke-linecap="round" stroke-linejoin="round"/>
<path id="Vector_2" d="M7.59144 8.68414C6.05551 8.14131 4.95508 6.67645 4.95508 4.95462C4.95508 3.23278 6.05551 1.76796 7.59144 1.2251" stroke="#191A1F" stroke-width="2" stroke-linecap="round" stroke-linejoin="round"/>
<path id="Vector_3" d="M27.3631 19.4546H29.9995V18.1364C29.9995 15.6796 28.319 13.6151 26.0449 13.0298" stroke="#191A1F" stroke-width="2" stroke-linecap="round" stroke-linejoin="round"/>
<path id="Vector_4" d="M23.4082 1.2251C24.9441 1.76796 26.0446 3.23278 26.0446 4.95462C26.0446 6.67645 24.9441 8.14131 23.4082 8.68414" stroke="#191A1F" stroke-width="2" stroke-linecap="round" stroke-linejoin="round"/>
<path id="Vector_5" d="M18.1373 12.8633H12.8645C9.95248 12.8633 7.5918 15.224 7.5918 18.136V19.4542H23.41V18.136C23.41 15.224 21.0492 12.8633 18.1373 12.8633Z" stroke="#191A1F" stroke-width="2" stroke-linecap="round" stroke-linejoin="round"/>
<path id="Vector_6" d="M15.4995 8.90909C17.6836 8.90909 19.454 7.13857 19.454 4.95455C19.454 2.77052 17.6836 1 15.4995 1C13.3154 1 11.5449 2.77052 11.5449 4.95455C11.5449 7.13857 13.3154 8.90909 15.4995 8.90909Z" stroke="#191A1F" stroke-width="2" stroke-linecap="round" stroke-linejoin="round"/>
</g>
</svg>
