<svg width="29" height="29" viewBox="0 0 29 29" fill="none" xmlns="http://www.w3.org/2000/svg">
<g id="&#208;&#184;&#208;&#186;&#208;&#190;&#208;&#189;&#208;&#186;&#208;&#176; &#208;&#180;&#208;&#190;&#208;&#188;&#208;&#190;&#208;&#185;">
<g id="Group">
<path id="Vector" opacity="0.15" d="M4.83398 12.0833L14.5007 3.625L24.1673 12.0833V24.1667H18.1257V19.3333C18.1257 18.372 17.7437 17.4499 17.0639 16.7701C16.3841 16.0903 15.4621 15.7083 14.5007 15.7083C13.5393 15.7083 12.6172 16.0903 11.9374 16.7701C11.2576 17.4499 10.8757 18.3719 10.8757 19.3333V24.1667H4.83398V12.0833Z" fill="white"/>
<path id="Vector_2" d="M4.83398 12.0833L14.5007 3.625L24.1673 12.0833V24.1667H18.1257V19.3333C18.1257 18.372 17.7437 17.4499 17.0639 16.7701C16.3841 16.0903 15.462 15.7083 14.5007 15.7083C13.5392 15.7083 12.6172 16.0903 11.9374 16.7701C11.2576 17.4499 10.8757 18.3719 10.8757 19.3333V24.1667H4.834L4.83398 12.0833Z" fill="white" stroke="white" stroke-width="1.5" stroke-linecap="round" stroke-linejoin="round"/>
</g>
</g>
</svg>
