<svg width="29" height="29" viewBox="0 0 29 29" fill="none" xmlns="http://www.w3.org/2000/svg">
<g id="&#208;&#184;&#208;&#186;&#208;&#190;&#208;&#189;&#208;&#186;&#208;&#176; &#208;&#180;&#208;&#190;&#208;&#188;&#208;&#190;&#208;&#185;">
<g id="Group">
<path id="Vector" opacity="0.15" d="M11.4071 16.2398L11.4071 16.2398C10.5866 17.0602 10.1257 18.1729 10.1257 19.3333V23.4167H5.58398V12.4237L14.5007 4.62158L23.4173 12.4237V23.4167H18.8757V19.3333C18.8757 18.1731 18.4147 17.0602 17.5942 16.2398C16.7738 15.4193 15.6611 14.9583 14.5007 14.9583C13.3404 14.9583 12.2275 15.4193 11.4071 16.2398Z" stroke="url(#paint0_linear_78_29)" stroke-width="1.5"/>
<path id="Vector_2" d="M4.83398 12.0833L14.5007 3.625L24.1673 12.0833V24.1667H18.1257V19.3333C18.1257 18.372 17.7437 17.4499 17.0639 16.7701C16.3841 16.0903 15.462 15.7083 14.5007 15.7083C13.5392 15.7083 12.6172 16.0903 11.9374 16.7701C11.2576 17.4499 10.8757 18.3719 10.8757 19.3333V24.1667H4.834L4.83398 12.0833Z" stroke="url(#paint1_linear_78_29)" stroke-width="1.5" stroke-linecap="round" stroke-linejoin="round"/>
</g>
</g>
<defs>
<linearGradient id="paint0_linear_78_29" x1="39.6705" y1="36.2151" x2="1.02284" y2="19.6906" gradientUnits="userSpaceOnUse">
<stop stop-color="#0BBE46"/>
<stop offset="0.56" stop-color="#337248"/>
<stop offset="0.99" stop-color="#79B98E"/>
</linearGradient>
<linearGradient id="paint1_linear_78_29" x1="39.6705" y1="36.2151" x2="1.02284" y2="19.6906" gradientUnits="userSpaceOnUse">
<stop stop-color="#0BBE46"/>
<stop offset="0.56" stop-color="#337248"/>
<stop offset="0.99" stop-color="#79B98E"/>
</linearGradient>
</defs>
</svg>
