<svg width="74" height="74" viewBox="0 0 74 74" fill="none" xmlns="http://www.w3.org/2000/svg">
<g id="&#208;&#184;&#208;&#186;&#208;&#190;&#208;&#189;&#208;&#186;&#208;&#176; &#209;&#130;&#208;&#190;&#208;&#186;&#208;&#181;&#208;&#189;">
<path id="Vector" d="M22.9936 51.1508C23.2262 51.6587 23.4524 52.1714 23.696 52.6745C24.025 53.3565 24.381 54.0273 24.6926 54.7172C24.7812 54.9134 24.7512 55.1618 24.7749 55.3849C24.5787 55.3627 24.3573 55.3928 24.1911 55.3089C22.8354 54.6349 21.4544 54.002 20.1509 53.2362C18.5151 52.2742 17.1294 51.0084 16.0679 49.4103C14.8988 47.6509 14.1838 45.7142 13.9544 43.6304C13.6728 41.0672 13.831 38.5197 14.4638 36.0008C15.0096 33.8252 15.7531 31.7303 16.8494 29.7778C17.8539 27.9915 19.1416 26.4172 20.6808 25.0517C22.6377 23.3175 24.8223 21.9663 27.2522 20.9901C31.313 19.3603 35.5273 18.9585 39.8302 19.4458C42.2363 19.7179 44.5839 20.2828 46.8145 21.3018C49.4405 22.5011 51.8609 23.9884 53.8494 26.0944C56.1843 28.5674 57.7014 31.5088 58.5999 34.7793C59.3545 37.5308 59.7326 40.3219 59.4637 43.1779C59.1584 46.4294 57.8327 49.1809 55.4487 51.4245C53.9364 52.8486 52.1741 53.8833 50.32 54.7836C49.866 55.0036 49.4183 55.2425 48.958 55.4498C48.8283 55.5083 48.6638 55.4893 48.5151 55.5067C48.5214 55.3596 48.485 55.1903 48.5435 55.0669C49.0086 54.0653 49.4927 53.0732 49.9673 52.0764C50.0859 51.828 50.1919 51.5717 50.3042 51.3201C50.2694 51.2885 50.233 51.2568 50.1982 51.2252C50.0416 51.328 49.8676 51.4135 49.73 51.5369C48.2113 52.9182 46.7354 54.3517 45.1693 55.676C44.103 56.5779 42.9229 57.35 41.7697 58.1443C41.1622 58.562 40.4915 58.5605 39.8334 58.2092C39.4047 57.9798 38.968 57.7583 38.552 57.5067C38.1692 57.2757 37.9999 56.8975 37.9967 56.464C37.9936 55.9592 37.9461 55.4324 38.0743 54.9577C38.1707 54.6001 38.4682 54.2568 38.7608 54.0036C39.3082 53.5321 39.9789 53.1951 40.482 52.6872C41.1163 52.0448 41.4675 51.2252 41.3979 50.279C41.3489 49.6034 41.11 49.3281 40.4503 49.3961C39.7638 49.4657 39.0772 49.6034 38.4096 49.7822C36.9447 50.1761 35.5305 49.9135 34.1067 49.5622C33.6686 49.4546 33.2019 49.4388 32.7479 49.4293C32.297 49.4198 32.066 49.7015 32.0059 50.1366C31.794 51.7093 32.4552 52.9387 33.879 53.6207C34.1495 53.7504 34.4374 53.8564 34.681 54.0273C34.8914 54.1761 35.1508 54.3707 35.2125 54.5938C35.4783 55.551 35.4989 56.5257 34.8946 57.369C34.3156 58.1776 33.4423 58.5225 32.4774 58.3706C31.9363 58.2851 31.3747 58.0288 30.9286 57.7045C29.7675 56.8611 28.6332 55.9751 27.5496 55.0352C26.2018 53.8675 24.9157 52.6286 23.6011 51.4245C23.454 51.29 23.291 51.1761 23.1344 51.0527C23.087 51.0859 23.0395 51.1176 22.992 51.1508H22.9936ZM54.9583 41.4991C55.0754 39.7191 54.0756 38.572 52.8274 37.5277C51.5571 36.4644 50.2995 35.3806 49.1035 34.235C48.1053 33.2778 47.2764 32.156 45.9855 31.5151C44.4242 30.7399 42.2268 31.3079 41.3536 32.8094C40.8316 33.7081 40.7525 34.7065 40.8664 35.7097C41.2856 39.3963 42.6255 42.7459 44.6978 45.8012C45.3717 46.7949 46.2703 47.5734 47.4409 47.9689C48.8378 48.442 50.1176 48.0987 51.3499 47.4056C53.6611 46.105 54.8903 44.151 54.9583 41.4991ZM32.6529 35.1369C32.5343 34.5451 32.4599 33.9977 32.3144 33.4708C31.6864 31.1971 28.8848 30.7304 27.393 31.5436C26.341 32.1164 25.6718 33.061 24.8223 33.8268C23.4397 35.0736 22.0793 36.3442 20.665 37.5546C19.5213 38.534 18.6718 39.6384 18.4883 41.1937C18.2241 43.4215 19.651 46.412 22.0445 47.4768C24.5297 48.5812 26.4517 48.2506 28.1903 46.1683C29.6283 44.4453 30.7087 42.5023 31.3652 40.3441C31.631 39.4691 31.873 38.5862 32.0914 37.6986C32.3018 36.8441 32.4694 35.9787 32.6529 35.1369Z" fill="white"/>
<path id="Vector_2" d="M10.6113 21.2925C10.6667 18.84 11.7345 16.6027 13.8084 15.0948C16.3902 13.2167 19.872 12.5696 22.9979 14.6724C24.129 15.4334 25.0655 16.3717 25.8707 17.4571C26.2536 17.9729 26.1839 18.1549 25.6603 18.5062C25.0766 18.897 24.5229 19.3368 23.9756 19.7783C23.7114 19.9919 23.4757 20.1295 23.1941 19.84C22.0472 18.6596 20.5554 18.4524 19.0415 18.5014C17.6921 18.5457 16.3791 18.8242 15.3967 19.9302C14.4934 20.9476 14.0853 22.1485 13.9714 23.4649C13.867 24.6769 14.0505 25.8541 14.4681 27.0044C14.5725 27.2924 14.601 27.7939 14.4317 27.9569C14.1248 28.2528 13.8496 27.8366 13.6107 27.6357C13.1519 27.2496 12.6853 26.8667 12.2755 26.4316C10.9673 25.0392 10.6588 23.3035 10.6113 21.2925Z" fill="white"/>
<path id="Vector_3" d="M63.0807 21.18C63.0618 23.3952 62.323 25.0296 60.991 26.3935C60.4879 26.9078 59.9026 27.3445 59.33 27.7843C59.1939 27.8887 58.9566 27.8603 58.7652 27.8919C58.7367 27.6862 58.6434 27.4615 58.694 27.2764C58.8712 26.6229 59.1639 25.998 59.2967 25.3382C59.6922 23.3619 59.3964 21.5076 58.1388 19.8731C57.4696 19.0044 56.503 18.6389 55.4795 18.4538C54.0447 18.1943 52.6399 18.4064 51.2984 18.9617C50.9583 19.1025 50.6673 19.3779 50.3762 19.6184C50.0471 19.8905 49.7545 19.9174 49.4871 19.5598C49.0489 18.9744 48.4209 18.6912 47.7628 18.4459C47.2503 18.2545 47.1648 18.0029 47.4686 17.5409C48.9746 15.2545 51.096 13.9539 53.8058 13.5916C55.1473 13.4112 56.4698 13.5109 57.7338 13.9666C58.4235 14.215 59.118 14.5583 59.6891 15.0109C61.7551 16.6501 62.951 18.7813 63.0807 21.1784V21.18Z" fill="white"/>
<path id="Vector_4" d="M43.7637 39.4724C43.7637 38.6528 44.7176 37.7193 45.5592 37.7129C46.4546 37.705 47.5002 38.7778 47.4923 39.6955C47.4844 40.6559 46.6918 41.4375 45.7348 41.428C44.7904 41.4185 43.7621 40.3996 43.7637 39.4724Z" fill="white"/>
<path id="Vector_5" d="M27.6421 41.4072C26.6265 41.3945 25.9747 40.6446 25.9905 39.5069C26.0016 38.7016 26.9982 37.7047 27.7781 37.7174C28.5738 37.7301 29.5467 38.7474 29.5372 39.5544C29.5246 40.5654 28.6498 41.4199 27.6436 41.4072H27.6421Z" fill="white"/>
</g>
</svg>
