<svg width="34" height="34" viewBox="0 0 34 34" fill="none" xmlns="http://www.w3.org/2000/svg">
<g id="&#208;&#183;&#208;&#176;&#208;&#179;&#209;&#128;&#209;&#131;&#208;&#183;&#208;&#186;&#208;&#176;" clip-path="url(#clip0_218_972)">
<path id="Vector" d="M18.3153 4.37538C18.3153 5.39554 18.3255 6.4157 18.3123 7.43543C18.2991 8.45049 17.2121 9.07603 16.3495 8.57296C15.916 8.31994 15.6967 7.92447 15.695 7.42906C15.6887 5.38873 15.6861 3.34883 15.6963 1.30851C15.6997 0.563908 16.29 -0.00506888 17.0081 3.40546e-05C17.7442 0.00513699 18.3098 0.577941 18.314 1.33658C18.3195 2.34951 18.3153 3.36244 18.3153 4.37538Z" fill="#191A1F"/>
<path id="Vector_2" d="M20.4434 8.6992C20.5097 8.49295 20.5424 8.26757 20.6478 8.08302C21.6647 6.29997 22.6854 4.51904 23.7227 2.74748C24.1719 1.98076 25.185 1.87062 25.7973 2.49275C26.2146 2.91672 26.2767 3.5363 25.9533 4.09848C25.3987 5.06166 24.8416 6.02313 24.2854 6.98504C23.8213 7.7879 23.3683 8.59714 22.8894 9.39107C22.4071 10.1901 21.3222 10.2479 20.7536 9.52077C20.5683 9.28348 20.482 9.01133 20.4438 8.6992H20.4434Z" fill="#191A1F"/>
<path id="Vector_3" d="M25.2809 13.5066C24.6872 13.5032 24.1747 13.1256 24.023 12.5795C23.8607 11.9944 24.0974 11.3965 24.6354 11.0844C26.2702 10.1365 27.9075 9.19417 29.5461 8.2531C29.7786 8.11958 30.0098 7.96776 30.2618 7.88824C30.8796 7.69263 31.5217 8.02305 31.7916 8.6388C32.0551 9.24052 31.832 9.93537 31.2468 10.2764C29.9872 11.01 28.7222 11.7346 27.4592 12.4626C26.9811 12.7382 26.509 13.026 26.022 13.285C25.7964 13.4049 25.5414 13.4687 25.2996 13.558C25.2932 13.541 25.2868 13.524 25.2805 13.507L25.2809 13.5066Z" fill="#191A1F"/>
<path id="Vector_4" d="M13.5729 8.70597C13.5249 9.30726 13.1501 9.80565 12.5837 9.9732C12.0401 10.1344 11.4329 9.91876 11.1244 9.41315C10.7079 8.73021 10.3187 8.03068 9.9192 7.33753C9.29665 6.25783 8.67069 5.18026 8.05451 4.09717C7.56284 3.23179 8.05579 2.20568 9.01193 2.11042C9.58264 2.05387 10.0131 2.30349 10.2995 2.79719C10.9038 3.83819 11.5055 4.88089 12.1081 5.92274C12.5089 6.61546 12.9172 7.30351 13.3039 8.00346C13.4238 8.22076 13.4846 8.47038 13.5725 8.70554L13.5729 8.70597Z" fill="#191A1F"/>
<path id="Vector_5" d="M29.5994 18.3018C28.5868 18.3018 27.5741 18.3078 26.5615 18.2993C25.8781 18.2938 25.355 17.8107 25.2675 17.1294C25.188 16.512 25.6062 15.9077 26.2376 15.7385C26.3524 15.7079 26.4752 15.6964 26.5942 15.6959C28.6195 15.6934 30.6448 15.6917 32.6701 15.6959C33.2851 15.6972 33.7788 16.0587 33.9416 16.6043C34.109 17.1652 33.9131 17.7835 33.4164 18.0739C33.1894 18.2066 32.9005 18.2857 32.637 18.2925C31.6248 18.3172 30.6121 18.3023 29.5994 18.3023V18.3018Z" fill="#191A1F"/>
<path id="Vector_6" d="M7.80011 13.0246C7.58848 12.9532 7.35901 12.914 7.1682 12.8056C5.69107 11.9683 4.21946 11.1204 2.74998 10.2695C2.11807 9.90332 1.92259 9.15956 2.27658 8.52085C2.63014 7.88213 3.38018 7.65037 4.03078 7.99907C4.5046 8.25294 4.96355 8.53445 5.42845 8.80448C6.42624 9.38282 7.42445 9.9603 8.42139 10.5412C8.95938 10.8546 9.20755 11.3798 9.09579 11.9526C8.97893 12.5509 8.44009 12.9846 7.80053 13.0246H7.80011Z" fill="#191A1F"/>
<path id="Vector_7" d="M3.32727 18.3001C2.64097 18.3001 1.95425 18.3103 1.26795 18.2971C0.599928 18.2844 0.0640636 17.7728 0.00542021 17.1205C-0.0536481 16.4601 0.375554 15.8703 1.02488 15.7248C1.1137 15.7048 1.20719 15.6955 1.29812 15.6955C2.6499 15.6938 4.00125 15.69 5.35302 15.6968C5.87103 15.6993 6.26709 15.9409 6.50379 16.401C6.74049 16.8607 6.70352 17.3229 6.412 17.749C6.15873 18.1194 5.79072 18.298 5.34367 18.3005C4.67139 18.3044 3.99912 18.3014 3.32685 18.3014C3.32685 18.301 3.32685 18.3005 3.32685 18.2997L3.32727 18.3001Z" fill="#191A1F"/>
<path id="Vector_8" d="M2.10573 24.8249C2.1257 24.3524 2.32245 23.9731 2.73126 23.7316C3.59603 23.2204 4.46294 22.7122 5.33919 22.2211C5.99956 21.8511 6.76873 22.0654 7.12866 22.6931C7.48732 23.3182 7.28334 24.093 6.63742 24.4796C5.79389 24.9847 4.94653 25.4844 4.08983 25.9666C3.17746 26.4803 2.08618 25.8446 2.10573 24.8249Z" fill="#191A1F"/>
<path id="Vector_9" d="M10.0561 27.5962C11.1159 27.6034 11.7427 28.6253 11.2854 29.4856C10.9638 30.0911 10.6195 30.6852 10.2634 31.2712C9.8848 31.8941 9.11989 32.077 8.50498 31.7172C7.87053 31.3456 7.65976 30.601 8.01714 29.9537C8.32863 29.3907 8.64862 28.8324 8.97371 28.2766C9.23335 27.8322 9.62771 27.6064 10.0561 27.5962Z" fill="#191A1F"/>
<path id="Vector_10" d="M18.3064 32.2633C18.3064 32.461 18.3276 32.6617 18.3026 32.8565C18.215 33.5305 17.6613 34.0046 16.989 33.9999C16.3248 33.9953 15.7792 33.5254 15.7138 32.8484C15.6747 32.4427 15.6759 32.0264 15.7193 31.6211C15.7928 30.9327 16.3916 30.4606 17.0821 30.4976C17.7497 30.5334 18.286 31.0781 18.3149 31.7538C18.3221 31.9231 18.3162 32.0932 18.3162 32.2628C18.3132 32.2628 18.3098 32.2628 18.3068 32.2628L18.3064 32.2633Z" fill="#191A1F"/>
<path id="Vector_11" d="M26.1507 30.606C26.1456 31.317 25.5706 31.8834 24.8567 31.8817C24.1372 31.88 23.547 31.2847 23.5508 30.5639C23.5542 29.8622 24.144 29.2822 24.8478 29.2881C25.5761 29.2945 26.1562 29.8809 26.1507 30.6064V30.606Z" fill="#191A1F"/>
</g>
<defs>
<clipPath id="clip0_218_972">
<rect width="34" height="34" fill="white"/>
</clipPath>
</defs>
</svg>
