<svg width="356" height="102" viewBox="0 0 356 102" fill="none" xmlns="http://www.w3.org/2000/svg">
<path fill-rule="evenodd" clip-rule="evenodd" d="M134.602 0H24C10.7452 0 0 10.7451 0 24V57V65.2899V79.3744V95V97C0 99.7614 2.23858 102 5 102H351C353.761 102 356 99.7614 356 97V95V57.1035C356 57.0464 355.954 57 355.896 57C355.839 57 355.793 56.9536 355.793 56.8965V24C355.793 10.7452 345.048 0 331.793 0H222.096C218.36 0 215.353 2.96285 214.51 6.60185C210.699 23.0493 195.956 35.3075 178.349 35.3075C160.743 35.3075 145.999 23.0493 142.188 6.60185C141.345 2.96285 138.338 0 134.602 0Z" fill="white"/>
</svg>
