<svg width="55" height="55" viewBox="0 0 55 55" fill="none" xmlns="http://www.w3.org/2000/svg">
<g id="_&#208;&#160;&#208;&#142;&#208;&#160;&#194;&#187;&#208;&#160;&#209;&#149;&#208;&#160;&#226;&#132;&#150;_1" clip-path="url(#clip0_218_893)">
<path id="Vector" d="M27.5 55C42.6878 55 55 42.6878 55 27.5C55 12.3122 42.6878 0 27.5 0C12.3122 0 0 12.3122 0 27.5C0 42.6878 12.3122 55 27.5 55Z" fill="#35ACE0"/>
<path id="Vector_2" d="M33.4131 36.0119C33.3253 36.067 33.3587 36.1657 33.3316 36.2426C33.2787 36.2783 33.2647 36.3366 33.2469 36.3925C33.2376 36.405 33.2321 36.419 33.2306 36.4337C33.1241 36.4834 33.1443 36.5798 33.1436 36.6683V36.6668C33.0068 36.659 32.9874 36.7786 32.9416 36.861C31.9232 38.7005 30.9125 40.5447 29.8886 42.3812C28.9378 44.0863 26.5117 44.2805 25.3356 42.7354C24.9464 42.2242 24.6792 41.6284 24.3692 41.0644C22.8598 38.3168 21.3574 35.566 19.8503 32.8168C19.5823 32.3281 19.3073 31.8426 19.0362 31.3555C18.9966 31.2204 18.9259 31.1015 18.8412 30.9896L18.8397 30.9865C18.7263 30.748 18.6206 30.5049 18.4544 30.2967C18.3052 29.9168 18.0784 29.5781 17.8873 29.2208C17.7739 29.0274 17.7172 28.8005 17.5416 28.6452C17.5284 28.6319 17.5152 28.6187 17.5027 28.6048C17.4282 28.3033 17.2697 28.0485 17.0763 27.8108L17.0778 27.8124C17.0794 27.7324 17.053 27.6609 17.0157 27.5918C16.3592 26.3807 15.7036 25.1688 15.0464 23.9585C14.6215 23.177 14.1934 22.3971 13.7669 21.6171L13.7646 21.614C13.2861 20.7059 12.8021 19.8009 12.3298 18.8889C11.8179 17.8992 11.8326 16.9009 12.2972 15.8965C12.472 15.519 12.7353 15.2059 12.9917 14.8858C13.0942 14.8167 13.1913 14.7413 13.2635 14.6388L13.2612 14.6419C13.2962 14.6132 13.3311 14.5844 13.3661 14.5557C13.4321 14.5161 13.4989 14.4764 13.5642 14.436C14.0396 14.1447 14.5345 13.9249 15.1116 13.9295C15.7013 13.9342 16.2917 13.9031 16.8813 13.8969C18.0458 13.8837 19.2102 13.8775 20.3747 13.8682C20.4912 13.8713 20.607 13.8767 20.7235 13.8767C23.851 13.8697 26.9786 13.8526 30.1061 13.8565C33.0084 13.8604 35.9114 13.8783 38.8137 13.9117C39.5051 13.9194 40.2151 13.8363 40.8808 14.1253L40.8793 14.1168C40.8964 14.1292 40.9143 14.1408 40.9313 14.1533C40.943 14.1642 40.957 14.168 40.9733 14.1642C41.0378 14.2224 41.1123 14.2613 41.1986 14.2752V14.2698C41.2996 14.3809 41.4324 14.4446 41.5621 14.513L41.5761 14.5075C41.5761 14.5075 41.5699 14.4935 41.5699 14.4943C41.5715 14.5331 41.5948 14.5464 41.6297 14.5464H41.6181C41.6491 14.5992 41.6934 14.6357 41.754 14.6505L41.7517 14.6481C41.7719 14.7072 41.8115 14.7437 41.8736 14.7561C41.8736 14.7561 41.8791 14.7623 41.8799 14.7623C41.9055 14.8322 41.97 14.8649 42.022 14.9091C42.0313 14.9169 42.0414 14.9255 42.0508 14.9332C42.0857 14.9977 42.1246 15.0583 42.1914 15.0948C42.5619 15.5889 42.8719 16.1125 42.9861 16.73C43.1073 17.3841 43.0707 18.0281 42.7872 18.6372C42.6039 19.0303 42.3879 19.407 42.1852 19.7908C42.1525 19.8529 42.1152 19.9127 42.144 19.9873C42.1269 20.0145 42.1098 20.0425 42.0935 20.0697C42.0686 20.0875 42.0337 20.0992 42.0205 20.1233C41.7804 20.5738 41.5427 21.0267 41.3042 21.4788C41.2646 21.5107 41.2483 21.5534 41.2467 21.6031L41.2436 21.6109C41.0642 21.8587 40.9306 22.1322 40.8063 22.411C40.7946 22.4196 40.7876 22.4312 40.7876 22.446L40.7892 22.4406C40.7736 22.4701 40.7589 22.4996 40.7433 22.5291L40.741 22.533C40.7239 22.5664 40.7068 22.6006 40.6905 22.634L40.6866 22.6371C40.4536 23.0558 40.2136 23.4714 39.989 23.8948C39.8166 24.2203 39.6068 24.5279 39.4895 24.8814C39.4709 24.9062 39.453 24.9319 39.4344 24.9567C39.3955 25.0142 39.352 25.0686 39.3194 25.1292C38.8067 26.0746 38.294 27.0208 37.7836 27.9677C37.3696 28.7368 36.9586 29.5082 36.5469 30.2788C36.435 30.442 36.341 30.616 36.2649 30.7985C36.1787 30.9011 36.122 31.0199 36.073 31.1427C35.826 31.5839 35.5758 32.0236 35.3319 32.4664C35.0787 32.9255 34.8293 33.387 34.5799 33.8484C34.19 34.5693 33.8015 35.2902 33.4131 36.0119ZM18.5996 25.0717C18.6167 25.0896 18.6338 25.1074 18.6509 25.1253C18.668 25.2077 18.6595 25.311 18.7915 25.2993C18.7076 25.4485 18.835 25.5425 18.8917 25.6473C19.1178 26.0629 19.3174 26.4925 19.5784 26.8887L19.5808 26.8942C19.6266 26.9998 19.6647 27.1101 19.7191 27.2111C19.8371 27.431 19.9746 27.6407 20.0842 27.8637C20.4143 28.5356 20.7787 29.1889 21.1578 29.8337H21.1554C21.4429 30.3713 21.7272 30.9112 22.02 31.4464C22.4302 32.1992 22.8466 32.948 23.2607 33.6985L23.2591 33.6969C23.538 34.299 23.8767 34.8692 24.1929 35.451C24.6543 36.2978 25.1274 37.1383 25.5958 37.9812C25.6067 37.9998 25.6184 38.0192 25.6292 38.0379V38.0433C25.8133 38.3952 25.9967 38.7471 26.1955 39.127C26.2569 39.0105 26.2491 38.9367 26.2328 38.8621C26.2328 38.3471 26.2328 37.8328 26.2328 37.3178C26.2328 37.2906 26.2328 37.2634 26.2328 37.2362C26.2328 36.9837 26.2328 36.7312 26.2328 36.4788C26.2522 36.1105 26.2522 35.7423 26.2328 35.3741V34.7076C26.2328 34.5879 26.2328 34.4683 26.2328 34.3487C26.2328 34.0799 26.2328 33.8103 26.2328 33.5415C26.2367 33.5027 26.2437 33.4646 26.2437 33.4258C26.246 27.8264 26.2476 22.2269 26.2546 16.6275C26.2546 16.4442 26.1893 16.4115 26.0254 16.4115C22.5227 16.4154 19.0207 16.4154 15.5179 16.4131C15.1699 16.4131 14.8996 16.5723 14.6976 16.8279C14.5181 17.0555 14.4583 17.3057 14.6207 17.6017C15.1217 18.5121 15.5972 19.4373 16.0858 20.3555C16.4851 21.106 16.889 21.8533 17.2914 22.6021C17.2914 22.6021 17.293 22.6045 17.293 22.6037C17.3621 22.8189 17.4833 23.0061 17.6131 23.1887L17.6185 23.2019C17.6558 23.3254 17.7016 23.445 17.7941 23.5398V23.5476C17.8818 23.7744 18.0061 23.9803 18.1328 24.1861C18.1335 24.2016 18.1382 24.2156 18.146 24.2288C18.2765 24.4681 18.3627 24.7322 18.5538 24.9358C18.5522 24.949 18.5554 24.9614 18.5616 24.973C18.5507 25.0142 18.5499 25.0515 18.5965 25.0725V25.0694L18.5996 25.0717ZM31.384 34.299V34.3005C31.4998 34.163 31.5899 34.0139 31.6186 33.8329V33.8352C31.6862 33.836 31.7064 33.78 31.7313 33.7334C31.9068 33.4056 32.0801 33.077 32.2549 32.7484C32.5283 32.2839 32.7893 31.8123 33.0247 31.3268C33.2896 30.8972 33.5296 30.4552 33.7487 30.0007C34.2117 29.1959 34.6576 28.3818 35.0841 27.5576C35.7048 26.4234 36.3278 25.2916 36.9454 24.1558C37.6313 22.895 38.315 21.6327 38.9931 20.3672C39.474 19.4715 39.972 18.5843 40.3938 17.6591C40.5779 17.2552 40.4365 16.8489 40.0613 16.6081C39.8391 16.4651 39.603 16.4131 39.3349 16.4131C35.9409 16.4185 32.547 16.4146 29.153 16.4154C28.7754 16.4154 28.8119 16.3556 28.8065 16.7658C28.8065 16.7735 28.8065 16.7813 28.8065 16.7891C28.808 23.8723 28.8104 30.9555 28.8119 38.0394C28.8119 38.3471 28.8119 38.6539 28.8119 38.9615C29.0085 38.7238 29.1646 38.4799 29.2734 38.2088L29.2788 38.2002C29.2873 38.1894 29.2967 38.1785 29.3052 38.1676L29.3301 38.1062C29.7768 37.3387 30.1994 36.558 30.6095 35.7711L30.6157 35.7571C30.6888 35.6312 30.7812 35.5147 30.8138 35.3687C30.8208 35.3555 30.8239 35.3423 30.8232 35.3275C30.9894 35.1729 31.0368 34.9507 31.1432 34.762C31.151 34.7519 31.1533 34.7402 31.1494 34.7278C31.2318 34.6128 31.3265 34.5033 31.3359 34.3518C31.3522 34.3339 31.3677 34.3168 31.384 34.299Z" fill="#FCFDFD"/>
</g>
<defs>
<clipPath id="clip0_218_893">
<rect width="55" height="55" fill="white"/>
</clipPath>
</defs>
</svg>
